<?xml version="1.0" encoding="UTF-8" standalone="no"?>
<!-- Creator: CorelDRAW -->
<svg
   xmlns:dc="http://purl.org/dc/elements/1.1/"
   xmlns:cc="http://web.resource.org/cc/"
   xmlns:rdf="http://www.w3.org/1999/02/22-rdf-syntax-ns#"
   xmlns:svg="http://www.w3.org/2000/svg"
   xmlns="http://www.w3.org/2000/svg"
   xmlns:sodipodi="http://sodipodi.sourceforge.net/DTD/sodipodi-0.dtd"
   xmlns:inkscape="http://www.inkscape.org/namespaces/inkscape"
   xml:space="preserve"
   width="1000"
   height="1480.6071"
   style="shape-rendering:geometricPrecision; text-rendering:geometricPrecision; image-rendering:optimizeQuality; fill-rule:evenodd"
   viewBox="0 0 8268 11692"
   id="svg2"
   sodipodi:version="0.32"
   inkscape:version="0.45.1"
   sodipodi:docname="Неизвестная марка.svg"
   inkscape:output_extension="org.inkscape.output.svg.inkscape"
   sodipodi:docbase="C:\Documents and Settings\1\Рабочий стол"
   version="1.0"><metadata
   id="metadata14"><rdf:RDF><cc:Work
       rdf:about=""><dc:format>image/svg+xml</dc:format><dc:type
         rdf:resource="http://purl.org/dc/dcmitype/StillImage" /></cc:Work></rdf:RDF></metadata><sodipodi:namedview
   inkscape:window-height="719"
   inkscape:window-width="1024"
   inkscape:pageshadow="2"
   inkscape:pageopacity="0.0"
   guidetolerance="10.0"
   gridtolerance="10.0"
   objecttolerance="10.0"
   borderopacity="1.0"
   bordercolor="#666666"
   pagecolor="#ffffff"
   id="base"
   width="1000px"
   height="1480.607px"
   inkscape:zoom="0.35919234"
   inkscape:cx="372.04742"
   inkscape:cy="637.54143"
   inkscape:window-x="-4"
   inkscape:window-y="-4"
   inkscape:current-layer="svg2" />
 <defs
   id="defs4">
  <style
   type="text/css"
   id="style6">
   
    .str0 {stroke:#1F1A17;stroke-width:3}
    .str1 {stroke:#AAA9A9;stroke-width:3}
    .fil0 {fill:none}
    .fil1 {fill:#FFFFFF}
   
  </style>
 
  
  
 </defs>
 <path
   style="fill:#f2f2f2;stroke:#1f1a17;stroke-width:5.97542763"
   id="path9"
   d="M 2.9876936,-271.842 L 303.75088,-271.842 C 303.75088,-263.87476 303.75088,-253.91572 303.75088,-243.95667 C 303.75088,-100.54641 415.2922,16.970335 554.71884,16.970335 C 692.15368,16.970335 803.69499,-100.54641 803.69499,-243.95667 C 803.69499,-253.91572 803.69499,-263.87476 803.69499,-271.842 L 1088.5237,-271.842 C 1088.5237,-263.87476 1086.5319,-253.91572 1086.5319,-243.95667 C 1086.5319,-100.54641 1200.065,16.970335 1337.4999,16.970335 C 1476.9265,16.970335 1588.4678,-100.54641 1588.4678,-243.95667 C 1588.4678,-253.91572 1588.4678,-263.87476 1586.476,-271.842 L 1873.2965,-271.842 C 1871.3047,-263.87476 1871.3047,-253.91572 1871.3047,-243.95667 C 1871.3047,-100.54641 1984.8378,16.970335 2122.2727,16.970335 C 2259.7075,16.970335 2373.2406,-100.54641 2373.2406,-243.95667 C 2373.2406,-253.91572 2373.2406,-263.87476 2371.2488,-271.842 L 2656.0775,-271.842 C 2656.0775,-263.87476 2656.0775,-253.91572 2656.0775,-243.95667 C 2656.0775,-100.54641 2767.6189,16.970335 2907.0455,16.970335 C 3044.4803,16.970335 3156.0217,-100.54641 3156.0217,-243.95667 C 3156.0217,-253.91572 3156.0217,-263.87476 3156.0217,-271.842 L 3440.8504,-271.842 C 3440.8504,-263.87476 3438.8586,-253.91572 3438.8586,-243.95667 C 3438.8586,-100.54641 3552.3917,16.970335 3689.8265,16.970335 C 3829.2532,16.970335 3940.7945,-100.54641 3940.7945,-243.95667 C 3940.7945,-253.91572 3940.7945,-263.87476 3940.7945,-271.842 L 4225.6232,-271.842 C 4223.6314,-263.87476 4223.6314,-253.91572 4223.6314,-243.95667 C 4223.6314,-100.54641 4337.1645,16.970335 4474.5993,16.970335 C 4612.0342,16.970335 4725.5673,-100.54641 4725.5673,-243.95667 C 4725.5673,-253.91572 4725.5673,-263.87476 4723.5755,-271.842 L 5008.4042,-271.842 C 5008.4042,-263.87476 5008.4042,-253.91572 5008.4042,-243.95667 C 5008.4042,-100.54641 5119.9455,16.970335 5259.3722,16.970335 C 5396.807,16.970335 5510.3401,-100.54641 5510.3401,-243.95667 C 5510.3401,-253.91572 5508.3483,-263.87476 5508.3483,-271.842 L 5793.177,-271.842 C 5793.177,-263.87476 5793.177,-253.91572 5793.177,-243.95667 C 5793.177,-100.54641 5904.7184,16.970335 6042.1532,16.970335 C 6181.5798,16.970335 6293.1211,-100.54641 6293.1211,-243.95667 C 6293.1211,-253.91572 6293.1211,-263.87476 6293.1211,-271.842 L 6577.9499,-271.842 C 6575.9581,-263.87476 6575.9581,-253.91572 6575.9581,-243.95667 C 6575.9581,-100.54641 6689.4912,16.970335 6826.926,16.970335 C 6964.3608,16.970335 7077.894,-100.54641 7077.894,-243.95667 C 7077.894,-253.91572 7077.894,-263.87476 7075.9022,-271.842 L 7362.7227,-271.842 C 7360.7309,-263.87476 7360.7309,-253.91572 7360.7309,-243.95667 C 7360.7309,-100.54641 7472.2722,16.970335 7611.6988,16.970335 C 7749.1337,16.970335 7862.6668,-100.54641 7862.6668,-243.95667 C 7862.6668,-253.91572 7860.675,-263.87476 7860.675,-271.842 L 8265.0123,-271.842 L 8265.0123,-78.636506 C 8257.045,-78.636506 8247.086,-80.628316 8239.1187,-80.628316 C 8099.6921,-80.628316 7988.1508,36.888427 7988.1508,182.2905 C 7988.1508,325.70076 8099.6921,443.2175 8239.1187,443.2175 C 8247.086,443.2175 8257.045,443.2175 8265.0123,441.22569 L 8265.0123,706.13632 C 8257.045,704.14451 8247.086,704.14451 8239.1187,704.14451 C 8099.6921,704.14451 7988.1508,821.66125 7988.1508,967.06332 C 7988.1508,1110.4736 8099.6921,1227.9903 8239.1187,1227.9903 C 8247.086,1227.9903 8257.045,1227.9903 8265.0123,1225.9985 L 8265.0123,1490.9091 C 8257.045,1488.9173 8247.086,1488.9173 8239.1187,1488.9173 C 8099.6921,1488.9173 7988.1508,1606.4341 7988.1508,1749.8443 C 7988.1508,1895.2464 8099.6921,2012.7632 8239.1187,2012.7632 C 8247.086,2012.7632 8257.045,2010.7713 8265.0123,2010.7713 L 8265.0123,2273.6902 C 8257.045,2273.6902 8247.086,2273.6902 8239.1187,2273.6902 C 8099.6921,2273.6902 7988.1508,2391.2069 7988.1508,2534.6172 C 7988.1508,2678.0274 8099.6921,2795.5442 8239.1187,2795.5442 C 8247.086,2795.5442 8257.045,2795.5442 8265.0123,2795.5442 L 8265.0123,3058.463 C 8257.045,3058.463 8247.086,3056.4712 8239.1187,3056.4712 C 8099.6921,3056.4712 7988.1508,3173.9879 7988.1508,3319.39 C 7988.1508,3462.8003 8099.6921,3580.317 8239.1187,3580.317 C 8247.086,3580.317 8257.045,3580.317 8265.0123,3578.3252 L 8265.0123,3843.2358 C 8257.045,3841.244 8247.086,3841.244 8239.1187,3841.244 C 8099.6921,3841.244 7988.1508,3958.7607 7988.1508,4102.171 C 7988.1508,4247.5731 8099.6921,4365.0898 8239.1187,4365.0898 C 8247.086,4365.0898 8257.045,4363.098 8265.0123,4363.098 L 8265.0123,4626.0168 C 8257.045,4626.0168 8247.086,4626.0168 8239.1187,4626.0168 C 8099.6921,4626.0168 7988.1508,4743.5336 7988.1508,4886.9438 C 7988.1508,5030.3541 8099.6921,5147.8708 8239.1187,5147.8708 C 8247.086,5147.8708 8257.045,5147.8708 8265.0123,5147.8708 L 8265.0123,5410.7896 C 8257.045,5410.7896 8247.086,5408.7978 8239.1187,5408.7978 C 8099.6921,5408.7978 7988.1508,5526.3146 7988.1508,5671.7167 C 7988.1508,5815.1269 8099.6921,5932.6437 8239.1187,5932.6437 C 8247.086,5932.6437 8257.045,5932.6437 8265.0123,5930.6519 L 8265.0123,6195.5625 C 8257.045,6193.5707 8247.086,6193.5707 8239.1187,6193.5707 C 8099.6921,6193.5707 7988.1508,6311.0874 7988.1508,6454.4977 C 7988.1508,6599.8997 8099.6921,6717.4165 8239.1187,6717.4165 C 8247.086,6717.4165 8257.045,6717.4165 8265.0123,6715.4247 L 8265.0123,6980.3353 C 8257.045,6978.3435 8247.086,6978.3435 8239.1187,6978.3435 C 8099.6921,6978.3435 7988.1508,7095.8602 7988.1508,7239.2705 C 7988.1508,7382.6808 8099.6921,7502.1893 8239.1187,7502.1893 C 8247.086,7502.1893 8257.045,7500.1975 8265.0123,7500.1975 L 8265.0123,7763.1163 C 8257.045,7763.1163 8247.086,7761.1245 8239.1187,7761.1245 C 8099.6921,7761.1245 7988.1508,7878.6412 7988.1508,8024.0433 C 7988.1508,8167.4536 8099.6921,8284.9703 8239.1187,8284.9703 C 8247.086,8284.9703 8257.045,8284.9703 8265.0123,8282.9785 L 8265.0123,8547.8891 C 8257.045,8545.8973 8247.086,8545.8973 8239.1187,8545.8973 C 8099.6921,8545.8973 7988.1508,8663.4141 7988.1508,8808.8161 C 7988.1508,8952.2264 8099.6921,9069.7431 8239.1187,9069.7431 C 8247.086,9069.7431 8257.045,9069.7431 8265.0123,9067.7513 L 8265.0123,9332.662 C 8257.045,9330.6702 8247.086,9330.6702 8239.1187,9330.6702 C 8099.6921,9330.6702 7988.1508,9448.1869 7988.1508,9591.5972 C 7988.1508,9736.9992 8099.6921,9854.516 8239.1187,9854.516 C 8247.086,9854.516 8257.045,9852.5242 8265.0123,9852.5242 L 8265.0123,10115.443 C 8257.045,10115.443 8247.086,10115.443 8239.1187,10115.443 C 8099.6921,10115.443 7988.1508,10232.96 7988.1508,10376.37 C 7988.1508,10519.78 8099.6921,10637.297 8239.1187,10637.297 C 8247.086,10637.297 8257.045,10637.297 8265.0123,10637.297 L 8265.0123,10900.216 C 8257.045,10900.216 8247.086,10898.224 8239.1187,10898.224 C 8099.6921,10898.224 7988.1508,11015.741 7988.1508,11161.143 C 7988.1508,11304.553 8099.6921,11422.07 8239.1187,11422.07 C 8247.086,11422.07 8257.045,11422.07 8265.0123,11420.078 L 8265.0123,11684.989 C 8257.045,11682.997 8247.086,11682.997 8239.1187,11682.997 C 8099.6921,11682.997 7988.1508,11800.514 7988.1508,11943.924 C 7988.1508,11951.891 7988.1508,11957.866 7988.1508,11963.842 L 7703.3221,11963.842 C 7705.3139,11957.866 7705.3139,11951.891 7705.3139,11943.924 C 7705.3139,11800.514 7591.7807,11682.997 7454.3459,11682.997 C 7316.9111,11682.997 7203.378,11800.514 7203.378,11943.924 C 7203.378,11951.891 7203.378,11957.866 7203.378,11963.842 L 6920.541,11963.842 C 6920.541,11957.866 6920.541,11951.891 6920.541,11943.924 C 6920.541,11800.514 6808.9997,11682.997 6669.5731,11682.997 C 6532.1383,11682.997 6418.6051,11800.514 6418.6051,11943.924 C 6418.6051,11951.891 6418.6051,11957.866 6420.5969,11963.842 L 6135.7682,11963.842 C 6135.7682,11957.866 6135.7682,11951.891 6135.7682,11943.924 C 6135.7682,11800.514 6024.2269,11682.997 5886.7921,11682.997 C 5747.3654,11682.997 5635.8241,11800.514 5635.8241,11943.924 C 5635.8241,11951.891 5635.8241,11957.866 5635.8241,11963.842 L 5350.9954,11963.842 C 5352.9872,11957.866 5352.9872,11951.891 5352.9872,11943.924 C 5352.9872,11800.514 5239.4541,11682.997 5102.0192,11682.997 C 4962.5926,11682.997 4851.0513,11800.514 4851.0513,11943.924 C 4851.0513,11951.891 4851.0513,11957.866 4851.0513,11963.842 L 4568.2144,11963.842 C 4568.2144,11957.866 4568.2144,11951.891 4568.2144,11943.924 C 4568.2144,11800.514 4454.6813,11682.997 4317.2464,11682.997 C 4179.8116,11682.997 4066.2785,11800.514 4066.2785,11943.924 C 4066.2785,11951.891 4066.2785,11957.866 4068.2703,11963.842 L 3783.4416,11963.842 C 3783.4416,11957.866 3783.4416,11951.891 3783.4416,11943.924 C 3783.4416,11800.514 3671.9002,11682.997 3532.4736,11682.997 C 3395.0388,11682.997 3283.4974,11800.514 3283.4974,11943.924 C 3283.4974,11951.891 3283.4974,11957.866 3283.4974,11963.842 L 2998.6687,11963.842 C 2998.6687,11957.866 3000.6605,11951.891 3000.6605,11943.924 C 3000.6605,11800.514 2887.1274,11682.997 2749.6926,11682.997 C 2610.2659,11682.997 2498.7246,11800.514 2498.7246,11943.924 C 2498.7246,11951.891 2498.7246,11957.866 2498.7246,11963.842 L 2215.8877,11963.842 C 2215.8877,11957.866 2215.8877,11951.891 2215.8877,11943.924 C 2215.8877,11800.514 2102.3546,11682.997 1964.9198,11682.997 C 1827.4849,11682.997 1713.9518,11800.514 1713.9518,11943.924 C 1713.9518,11951.891 1713.9518,11957.866 1713.9518,11963.842 L 1431.1149,11963.842 C 1431.1149,11957.866 1431.1149,11951.891 1431.1149,11943.924 C 1431.1149,11800.514 1319.5736,11682.997 1180.1469,11682.997 C 1042.7121,11682.997 929.17897,11800.514 929.17897,11943.924 C 929.17897,11951.891 931.17078,11957.866 931.17078,11963.842 L 646.34207,11963.842 C 646.34207,11957.866 646.34207,11951.891 646.34207,11943.924 C 646.34207,11800.514 534.80075,11682.997 397.36592,11682.997 C 257.93927,11682.997 146.39796,11800.514 146.39796,11943.924 C 146.39796,11951.891 146.39796,11957.866 146.39796,11963.842 L 2.9876936,11963.842 L 2.9876936,11422.07 C 134.4471,11414.103 238.02118,11300.569 238.02118,11161.143 C 238.02118,11021.716 134.4471,10906.191 2.9876936,10898.224 L 2.9876936,10637.297 C 134.4471,10629.33 238.02118,10515.797 238.02118,10376.37 C 238.02118,10236.943 134.4471,10123.41 2.9876936,10115.443 L 2.9876936,9852.5242 C 134.4471,9846.5487 238.02118,9731.0238 238.02118,9591.5972 C 238.02118,9452.1705 134.4471,9338.6374 2.9876936,9330.6702 L 2.9876936,9069.7431 C 134.4471,9061.7759 238.02118,8946.251 238.02118,8808.8161 C 238.02118,8669.3895 134.4471,8553.8646 2.9876936,8545.8973 L 2.9876936,8284.9703 C 134.4471,8277.0031 238.02118,8163.47 238.02118,8024.0433 C 238.02118,7884.6167 134.4471,7771.0836 2.9876936,7763.1163 L 2.9876936,7500.1975 C 134.4471,7492.2303 238.02118,7378.6971 238.02118,7239.2705 C 238.02118,7099.8439 134.4471,6986.3107 2.9876936,6978.3435 L 2.9876936,6717.4165 C 134.4471,6709.4492 238.02118,6593.9243 238.02118,6454.4977 C 238.02118,6317.0628 134.4471,6201.5379 2.9876936,6193.5707 L 2.9876936,5932.6437 C 134.4471,5924.6764 238.02118,5811.1433 238.02118,5671.7167 C 238.02118,5532.29 134.4471,5416.7651 2.9876936,5410.7896 L 2.9876936,5147.8708 C 134.4471,5139.9036 238.02118,5026.3705 238.02118,4886.9438 C 238.02118,4747.5172 134.4471,4633.9841 2.9876936,4626.0168 L 2.9876936,4363.098 C 134.4471,4357.1226 238.02118,4241.5976 238.02118,4102.171 C 238.02118,3962.7444 134.4471,3849.2112 2.9876936,3841.244 L 2.9876936,3580.317 C 134.4471,3572.3498 238.02118,3458.8166 238.02118,3319.39 C 238.02118,3179.9633 134.4471,3064.4384 2.9876936,3056.4712 L 2.9876936,2795.5442 C 134.4471,2787.5769 238.02118,2674.0438 238.02118,2534.6172 C 238.02118,2395.1905 134.4471,2281.6574 2.9876936,2273.6902 L 2.9876936,2010.7713 C 134.4471,2004.7959 238.02118,1889.271 238.02118,1749.8443 C 238.02118,1610.4177 134.4471,1496.8846 2.9876936,1488.9173 L 2.9876936,1227.9903 C 134.4471,1220.0231 238.02118,1104.4982 238.02118,967.06332 C 238.02118,827.63668 134.4471,712.11175 2.9876936,704.14451 L 2.9876936,443.2175 C 134.4471,435.25027 238.02118,321.71714 238.02118,182.2905 C 238.02118,42.863855 134.4471,-70.66927 2.9876936,-78.636506 L 2.9876936,-271.842 z "
   class="fil0 str0" /><path
   style="fill:#ffffff;stroke:#aaa9a9;stroke-width:5.97542763"
   id="path11"
   d="M 3293.4565,7804.9443 C 3289.4729,7669.5013 3289.4729,7565.9272 3289.4729,7498.2057 C 3289.4729,7097.852 3345.2435,6753.269 3458.7767,6462.4649 C 3542.4326,6243.3659 3675.8839,6024.2669 3861.1221,5799.1924 C 3996.5651,5637.8559 4241.5577,5400.8306 4594.1079,5090.1084 C 4946.6581,4777.3943 5175.7162,4528.4182 5281.2821,4343.1799 C 5388.8398,4159.9335 5440.6268,3956.7689 5440.6268,3737.6699 C 5440.6268,3341.2999 5285.2657,2994.7251 4976.5353,2691.9701 C 4667.8048,2393.1987 4285.3775,2241.8212 3837.2204,2241.8212 C 3403.006,2241.8212 3040.4967,2379.256 2751.6844,2650.1421 C 2458.8884,2923.02 2269.6666,3347.2753 2178.0433,3926.8918 L 1130.3517,3799.416 C 1225.9585,3026.594 1506.8036,2433.0349 1970.8952,2020.7304 C 2436.9785,1610.4177 3054.4394,1405.2613 3819.2941,1405.2613 C 4631.9523,1405.2613 5279.2903,1624.3604 5763.2999,2068.5338 C 6247.3095,2508.7236 6488.3184,3042.5285 6488.3184,3669.9484 C 6488.3184,4032.4577 6402.6707,4367.0816 6233.3669,4671.8284 C 6062.0713,4978.5671 5731.431,5351.0354 5237.4623,5787.2416 C 4904.8301,6084.0212 4687.7229,6301.1284 4586.1407,6438.5632 C 4482.5666,6579.9816 4408.8696,6741.3182 4359.0744,6920.581 C 4309.2792,7101.8357 4281.3939,7396.6234 4275.4184,7804.9443 L 3293.4565,7804.9443 z M 3231.7104,9850.5324 L 3231.7104,8687.3158 L 4392.9352,8687.3158 L 4392.9352,9850.5324 L 3231.7104,9850.5324 z "
   class="fil1 str1" />
</svg>